<?xml version="1.0" encoding="utf-8"?>
<!-- Generator: Adobe Illustrator 22.0.1, SVG Export Plug-In . SVG Version: 6.00 Build 0)  -->
<svg version="1.1" id="Layer_1" xmlns="http://www.w3.org/2000/svg" xmlns:xlink="http://www.w3.org/1999/xlink" x="0px" y="0px"
	 viewBox="0 0 96 108.2" style="enable-background:new 0 0 96 108.2;" xml:space="preserve">
<title>15</title>
<path d="M86.9,29.3c-2.8-2.2-8-4.3-13.8-4.9c-3.9-3.1-9-4.4-13.9-3.6c-0.6,0-4.8,0-7.7-0.3c0.2-3.7,1.5-9.2,5.6-9.8
	c0.6,0,1.2-0.1,1.8-0.2h0.2c1.1-0.2,2.2-0.7,3-1.5c0.3-0.3,0.7-0.6,1.2-0.8c1-0.5,2.5-1.2,1.9-3.5c-0.4-1.7-1-3.5-2.7-4.3
	c-1.4-0.7-3.2-0.5-5.5,0.5l0,0c-0.7,0.3-1.4,0.5-2.1,0.8c-4.7,1.6-11.2,3.7-14,20c-3.3-0.9-14.5-3.2-23,3.2
	c-0.2,0.2-0.3,0.4-0.3,0.7c-4.8,0.8-8.7,2.6-10.8,5.1l-0.6,0.7c-4.4,5.1-7.5,8.7-5.6,27.4c2,19.1,18.1,23,20,23.4
	c3.4,1.7,7.2,2.5,11,2.4c1.5,0,2.9-0.1,4.4-0.3c3.3,1.6,6.9,2.4,10.5,2.4h0.8c2.6-0.1,5.1-0.6,7.4-1.7c1.9,0.4,3.9,0.6,5.8,0.6
	c3.4,0,6.7-0.7,9.7-2.2h0.9c4.6,0,20.8-1.5,23.9-22.4C97.8,42.2,94.3,35.3,86.9,29.3z M59.4,22.6h0.1c3.6-0.6,7.2,0,10.4,1.8
	c-1,0-2.1,0.1-3.1,0.2c-2,0.2-7.3,1.8-9.5,3.5c-1.7-1.1-4.8-3.4-5.5-5.8C54.9,22.6,59.2,22.6,59.4,22.6z M57.2,9.1L57.2,9.1
	c-5.8,0.7-7.3,8-7.3,12.2l0,0l0,0c0.1,4.3,6,7.9,6.9,8.5c0.4,0.4,0.7,0.9,0.9,1.4c-1.4,0.2-2.7,0.7-4,1.3c-1-0.4-2.1-0.7-3.2-1
	c-0.3-0.4-2.2-2.8-2.2-11.1c0-10.9,6.5-12.8,8.8-13.2c0,0.6,0.1,1.2,0.2,1.8L57.2,9.1z M61.9,2c1,0.5,1.4,1.9,1.8,3.2
	c0.2,1-0.1,1.1-1,1.6C61.9,7,61.4,7.5,60.9,8c-0.5,0.5-1.2,0.8-1.8,0.8c-0.1-0.6-0.2-1.2-0.2-1.8c-0.1-1.4-0.2-2.7-1.1-3.1
	c0-0.6,0.1-1.1,0.3-1.7C59.7,1.7,61,1.5,61.9,2L61.9,2z M55.5,3.3l0.6-0.2C56,3.6,56,4.2,56.2,4.8c0.1,0.3,0.4,0.6,0.7,0.7v0.1
	c-2.4,0.3-4.6,1.5-6.3,3.2c-2.6,2.6-4,6.6-4,11.7c0,5.7,0.9,8.9,1.7,10.6c-3-0.5-6.1-0.3-9.1,0.4c-0.4-0.3-0.7-0.7-0.8-1.2
	c0-0.3,0.1-0.6,0.3-0.8l0,0l0.1-0.1c1.7-1.8,3-4.1,3.7-6.5C45.1,6.8,50.8,4.8,55.5,3.3z M40.6,23.3c-0.7,1.8-1.7,3.5-3,4.9
	c-5.4-2.3-11.2-3.3-17.1-3C28.1,20.6,37.7,22.6,40.6,23.3z M2.3,58.6C0.4,40.7,3.4,37.3,7.5,32.5l0.6-0.7c4.2-4.9,16.9-6.9,28.6-2
	c0,0.2-0.1,0.4,0,0.6c0,0.3,0.1,0.6,0.2,0.8c-4-1.4-9.9-1.1-14.9,0.9C16.2,34.4,12.4,38.6,11,44c-3.2,12.2-1.3,25.5,4.7,34
	c0.3,0.4,0.6,0.8,0.9,1.1C11.5,76.8,3.6,71.4,2.3,58.6z M17,76.9c-5.7-8.1-7.5-20.8-4.4-32.5c1.2-4.8,4.8-8.6,9.9-10.7
	c4.5-1.8,9.9-2.2,13.5-1l-0.2,0.1C28,37,27.4,46.9,27.4,47.3c-1,13.4,1.9,30.7,5.8,35c0.1,0.1,0.3,0.3,0.4,0.4
	C29.6,83,21.2,82.7,17,76.9z M47.1,84.8c-5.6,0.2-10.8-1.7-12.6-3.7C31,77.3,28.2,60,29.1,47.4c0-0.1,0.5-9.4,7.6-13.1
	c2.5-1.2,5.2-1.8,7.9-1.8c5.7,0,11.5,2.2,13.8,5.2c5,6.7,5.4,34.9-0.6,42.5c-1,1.2-2.2,2.2-3.6,2.9c-0.1,0-0.1,0.1-0.2,0.2
	C51.8,84.3,49.5,84.8,47.1,84.8L47.1,84.8z M56.8,83.5c0.9-0.6,1.6-1.4,2.3-2.2c6.5-8.2,6-37.3,0.6-44.6c-1.1-1.4-2.5-2.5-4-3.2
	c0.8-0.3,1.6-0.5,2.5-0.7c0.1,0,0.2,0,0.3,0c3.7-0.5,7.4,0,10.8,1.5c4.7,1.9,8.3,6,9.6,10.9c3.2,12.2,1.4,25.2-4.4,32.5
	C69.3,84.2,60.8,84,56.8,83.5L56.8,83.5z M93.4,60.7C90.8,78.3,78.6,81.2,73,81.6c1.1-0.8,2-1.8,2.9-2.8c6.1-7.7,8-21.3,4.7-34
	c-1.4-5.5-5.4-10-10.6-12.1c-3.3-1.4-6.9-2-10.5-1.7c-0.1-0.7-0.4-1.3-0.9-1.8c2.6-1.4,5.5-2.4,8.4-2.9c7.3-0.9,15.3,1.5,18.9,4.4
	C92.9,36.4,96,42.6,93.4,60.7z"/>
</svg>
